<svg aria-hidden="true" style="position: absolute; width: 0; height: 0; overflow: hidden;" version="1.1" xmlns="http://www.w3.org/2000/svg" xmlns:xlink="http://www.w3.org/1999/xlink">
<defs>
<symbol id="icon-avatar" viewBox="0 0 32 32">
<path fill="#f0f0f0" style="fill: var(--color1, #f0f0f0)" d="M15.884 17.242h0.212c1.942-0.033 3.513-0.716 4.672-2.022 2.551-2.876 2.127-7.805 2.080-8.276-0.166-3.532-1.836-5.222-3.215-6.010-1.025-0.589-2.225-0.908-3.564-0.934h-0.113c-0.735 0-2.18 0.119-3.564 0.908-1.392 0.788-3.089 2.479-3.255 6.036-0.045 0.471-0.47 5.401 2.080 8.276 1.155 1.306 2.724 1.988 4.666 2.022zM10.909 7.11c0-0.019 0.006-0.039 0.006-0.052 0.218-4.752 3.593-5.261 5.037-5.261h0.077c1.789 0.039 4.832 0.768 5.037 5.261 0 0.020 0 0.039 0.006 0.052 0.007 0.047 0.471 4.553-1.636 6.925-0.835 0.941-1.949 1.405-3.412 1.418h-0.067c-1.457-0.013-2.577-0.477-3.405-1.418-2.102-2.359-1.651-6.884-1.644-6.924z"></path>
<path fill="#f0f0f0" style="fill: var(--color1, #f0f0f0)" d="M29.607 25.42v-0.020c0-0.052-0.006-0.105-0.006-0.164-0.041-1.312-0.127-4.381-3.002-5.361l-0.067-0.020c-2.988-0.762-5.473-2.484-5.5-2.505-0.143-0.101-0.321-0.162-0.513-0.162-0.494 0-0.894 0.4-0.894 0.894 0 0.302 0.149 0.569 0.378 0.73l0.003 0.002c0.112 0.080 2.749 1.916 6.051 2.764 1.542 0.55 1.716 2.199 1.761 3.711 0 0.060 0 0.112 0.007 0.166 0.006 0.596-0.033 1.517-0.14 2.048-1.073 0.609-5.28 2.716-11.683 2.716-6.375 0-10.609-2.113-11.689-2.723-0.106-0.529-0.153-1.452-0.14-2.048 0-0.052 0.007-0.106 0.007-0.166 0.047-1.51 0.218-3.161 1.761-3.709 3.302-0.849 5.937-2.691 6.051-2.764 0.232-0.164 0.381-0.431 0.381-0.732 0-0.494-0.4-0.894-0.894-0.894-0.192 0-0.37 0.061-0.516 0.164l0.003-0.002c-0.026 0.019-2.499 1.743-5.501 2.505-0.026 0.006-0.045 0.013-0.065 0.019-2.876 0.989-2.963 4.057-3.002 5.361 0 0.060 0 0.112-0.006 0.166v0.020c-0.007 0.343-0.015 2.113 0.337 3.001 0.069 0.176 0.189 0.319 0.341 0.415l0.004 0.002c0.198 0.132 4.963 3.168 12.935 3.168 7.971 0 12.736-3.041 12.935-3.168 0.154-0.1 0.274-0.243 0.343-0.412l0.002-0.006c0.33-0.881 0.324-2.65 0.317-2.995z"></path>
</symbol>
<symbol id="icon-App-Store" viewBox="0 0 32 32">
<path fill="#a6a6a6" style="fill: var(--color2, #a6a6a6)" d="M29.452 11.263h-26.902c-0.098 0-0.195 0-0.293 0.001-0.082 0-0.163 0.002-0.246 0.003-0.179 0.002-0.359 0.016-0.536 0.042-0.19 0.029-0.361 0.081-0.521 0.153l0.012-0.005c-0.166 0.076-0.308 0.169-0.434 0.281l0.002-0.002c-0.124 0.109-0.229 0.235-0.311 0.377l-0.004 0.007c-0.076 0.13-0.134 0.281-0.166 0.442l-0.002 0.009c-0.028 0.141-0.046 0.305-0.048 0.472l-0 0.002c-0.003 0.073-0.003 0.145-0.004 0.218v5.475c0.001 0.074 0.002 0.145 0.004 0.218 0.002 0.159 0.018 0.317 0.048 0.474s0.086 0.309 0.167 0.451c0.086 0.148 0.191 0.274 0.313 0.381l0.002 0.002c0.124 0.111 0.267 0.204 0.422 0.275l0.011 0.004c0.16 0.072 0.331 0.122 0.508 0.149 0.177 0.026 0.356 0.040 0.536 0.042 0.083 0.002 0.164 0.003 0.246 0.003 0.098 0.001 0.195 0.001 0.293 0.001h26.902c0.096 0 0.194 0 0.29-0.001 0.082 0 0.165-0.001 0.247-0.003 0.191-0.002 0.376-0.017 0.557-0.045l-0.022 0.003c0.191-0.029 0.362-0.082 0.523-0.155l-0.012 0.005c0.166-0.075 0.308-0.169 0.434-0.281l-0.002 0.001c0.124-0.109 0.229-0.235 0.312-0.375l0.004-0.007c0.076-0.13 0.133-0.281 0.164-0.442l0.001-0.009c0.028-0.141 0.046-0.304 0.049-0.471l0-0.003c0.001-0.074 0.001-0.145 0.001-0.218 0.002-0.086 0.002-0.172 0.002-0.259v-4.957c0-0.087 0-0.173-0.002-0.258 0-0.073 0-0.146-0.001-0.218-0.003-0.159-0.020-0.318-0.050-0.474-0.032-0.17-0.090-0.321-0.169-0.458l0.004 0.007c-0.165-0.285-0.427-0.517-0.748-0.663-0.148-0.068-0.32-0.119-0.499-0.147l-0.011-0.001c-0.159-0.025-0.344-0.040-0.533-0.042l-0.002-0c-0.082-0.001-0.165-0.002-0.247-0.003-0.096-0-0.194-0-0.29-0z"></path>
<path fill="#000" style="fill: var(--color3, #000)" d="M2.235 20.531c-0.082 0-0.161-0.001-0.242-0.003-0.178-0.002-0.352-0.016-0.521-0.041l0.021 0.003c-0.166-0.026-0.315-0.071-0.455-0.134l0.011 0.004c-0.143-0.065-0.267-0.145-0.376-0.242l0.001 0.001c-0.108-0.093-0.199-0.203-0.27-0.325l-0.003-0.006c-0.066-0.113-0.117-0.245-0.144-0.385l-0.001-0.008c-0.026-0.132-0.042-0.286-0.045-0.442l-0-0.002c-0.002-0.050-0.004-0.216-0.004-0.216v-5.473s0.003-0.164 0.004-0.212c0.002-0.149 0.017-0.297 0.045-0.444 0.026-0.137 0.075-0.27 0.146-0.394 0.074-0.128 0.165-0.238 0.27-0.33l0.001-0.001c0.108-0.096 0.232-0.177 0.366-0.238l0.009-0.004c0.128-0.059 0.277-0.104 0.433-0.128l0.009-0.001c0.166-0.024 0.334-0.037 0.502-0.039l0.242-0.003 27.774 0.003c0.167 0.002 0.333 0.015 0.498 0.039 0.156 0.023 0.307 0.067 0.448 0.13 0.278 0.127 0.504 0.327 0.647 0.573 0.070 0.123 0.118 0.255 0.143 0.391 0.028 0.148 0.043 0.297 0.046 0.447 0.001 0.067 0.001 0.139 0.001 0.211 0.002 0.089 0.002 0.173 0.002 0.259v4.958c0 0.086 0 0.17-0.002 0.255 0 0.077 0 0.148-0.001 0.22-0.003 0.158-0.020 0.309-0.049 0.456l0.003-0.017c-0.028 0.149-0.078 0.282-0.148 0.402l0.003-0.006c-0.075 0.127-0.165 0.235-0.27 0.327l-0.002 0.001c-0.108 0.096-0.231 0.177-0.366 0.238l-0.009 0.004c-0.13 0.059-0.28 0.105-0.437 0.129l-0.010 0.001c-0.166 0.024-0.333 0.037-0.501 0.038-0.078 0.002-0.161 0.003-0.24 0.003l-0.291 0.001-27.24-0.001z"></path>
<path fill="#fff" style="fill: var(--color4, #fff)" d="M7.774 16.071c0.005-0.414 0.225-0.776 0.554-0.981l0.005-0.003c-0.213-0.301-0.555-0.499-0.944-0.511l-0.002-0c-0.398-0.042-0.784 0.238-0.987 0.238-0.207 0-0.519-0.234-0.855-0.227-0.455 0.015-0.847 0.269-1.057 0.64l-0.003 0.006c-0.459 0.793-0.117 1.959 0.322 2.6 0.22 0.314 0.477 0.665 0.813 0.652 0.329-0.014 0.452-0.21 0.848-0.21 0.393 0 0.508 0.21 0.851 0.201 0.353-0.006 0.575-0.315 0.787-0.632 0.15-0.21 0.273-0.453 0.355-0.714l0.005-0.018c-0.41-0.176-0.691-0.576-0.692-1.042v-0zM7.127 14.155c0.166-0.199 0.268-0.457 0.268-0.739 0-0.031-0.001-0.062-0.004-0.092l0 0.004c-0.305 0.033-0.57 0.178-0.759 0.392l-0.001 0.001c-0.17 0.192-0.274 0.447-0.274 0.725 0 0.025 0.001 0.050 0.002 0.074l-0-0.003c0.003 0 0.007 0 0.010 0 0.305 0 0.578-0.141 0.756-0.361l0.001-0.002zM11.93 17.691h-1.122l-0.27 0.795h-0.475l1.063-2.941h0.494l1.063 2.941h-0.483l-0.269-0.795zM10.925 17.324h0.889l-0.439-1.29h-0.012l-0.439 1.29zM14.978 17.414c0 0.666-0.357 1.095-0.896 1.095-0.011 0.001-0.024 0.001-0.038 0.001-0.273 0-0.511-0.15-0.636-0.373l-0.002-0.004h-0.010v1.062h-0.441v-2.854h0.426v0.357h0.008c0.134-0.228 0.379-0.379 0.658-0.379 0.009 0 0.018 0 0.026 0l-0.001-0c0.545 0 0.904 0.43 0.904 1.095zM14.525 17.414c0-0.434-0.225-0.72-0.567-0.72-0.337 0-0.563 0.291-0.563 0.72 0 0.432 0.226 0.722 0.563 0.722 0.343 0 0.567-0.284 0.567-0.722zM17.34 17.414c0 0.666-0.357 1.095-0.896 1.095-0.011 0.001-0.024 0.001-0.038 0.001-0.273 0-0.511-0.15-0.636-0.373l-0.002-0.004h-0.010v1.062h-0.441v-2.854h0.427v0.357h0.008c0.134-0.228 0.379-0.379 0.658-0.379 0.009 0 0.017 0 0.026 0l-0.001-0c0.545 0 0.904 0.43 0.904 1.095zM16.887 17.414c0-0.434-0.225-0.72-0.567-0.72-0.336 0-0.563 0.291-0.563 0.72 0 0.432 0.226 0.722 0.563 0.722 0.343 0 0.567-0.284 0.567-0.722zM18.901 17.667c0.033 0.292 0.316 0.483 0.704 0.483 0.371 0 0.639-0.192 0.639-0.455 0-0.228-0.161-0.365-0.543-0.459l-0.381-0.092c-0.54-0.131-0.791-0.383-0.791-0.793 0-0.508 0.443-0.856 1.071-0.856 0.622 0 1.048 0.349 1.063 0.856h-0.445c-0.027-0.294-0.269-0.471-0.624-0.471s-0.598 0.179-0.598 0.44c0 0.208 0.155 0.33 0.535 0.424l0.324 0.080c0.604 0.143 0.855 0.385 0.855 0.815 0 0.55-0.439 0.895-1.136 0.895-0.653 0-1.094-0.336-1.122-0.868h0.451zM21.659 15.834v0.508h0.408v0.349h-0.408v1.182c0 0.184 0.082 0.269 0.261 0.269 0.048-0.001 0.097-0.004 0.145-0.010v0.347c-0.081 0.015-0.163 0.022-0.245 0.020-0.435 0-0.604-0.163-0.604-0.579v-1.229h-0.312v-0.349h0.312v-0.508h0.443zM22.304 17.414c0-0.675 0.398-1.099 1.018-1.099 0.622 0 1.018 0.424 1.018 1.099 0 0.677-0.394 1.099-1.018 1.099s-1.018-0.422-1.018-1.099zM23.891 17.414c0-0.463-0.212-0.736-0.569-0.736s-0.569 0.275-0.569 0.736c0 0.465 0.212 0.736 0.569 0.736s0.569-0.271 0.569-0.736zM24.703 16.342h0.42v0.365h0.010c0.057-0.225 0.258-0.388 0.496-0.388 0.007 0 0.014 0 0.021 0l-0.001-0c0.051 0 0.101 0.005 0.151 0.016v0.412c-0.054-0.017-0.116-0.027-0.181-0.027-0.006 0-0.012 0-0.018 0l0.001-0c-0.005-0-0.011-0-0.018-0-0.196 0-0.362 0.126-0.421 0.302l-0.001 0.003c-0.020 0.061-0.027 0.125-0.019 0.189v1.272h-0.441v-2.145zM27.831 17.856c-0.059 0.389-0.439 0.656-0.924 0.656-0.624 0-1.012-0.418-1.012-1.089 0-0.673 0.39-1.109 0.993-1.109 0.594 0 0.967 0.408 0.967 1.058v0.151h-1.516v0.027c-0.001 0.015-0.002 0.032-0.002 0.049 0 0.309 0.25 0.559 0.559 0.559 0.007 0 0.015-0 0.022-0l-0.001 0c0.014 0.001 0.029 0.002 0.045 0.002 0.203 0 0.376-0.124 0.449-0.3l0.001-0.003h0.418zM26.342 17.216h1.073c0.001-0.009 0.001-0.019 0.001-0.029 0-0.284-0.231-0.515-0.515-0.515-0.004 0-0.009 0-0.013 0h0.001c-0.001 0-0.002 0-0.003 0-0.3 0-0.543 0.243-0.543 0.543 0 0 0 0.001 0 0.001v-0zM10.869 13.331c0.013-0.001 0.029-0.002 0.045-0.002 0.276 0 0.51 0.179 0.594 0.426l0.001 0.004c0.029 0.088 0.038 0.181 0.026 0.273 0 0.452-0.244 0.711-0.666 0.711h-0.511v-1.414h0.511zM10.578 14.544h0.267c0.008 0.001 0.017 0.001 0.026 0.001 0.246 0 0.445-0.199 0.445-0.445 0-0.023-0.002-0.045-0.005-0.067l0 0.002c0.003-0.018 0.004-0.039 0.004-0.061 0-0.246-0.199-0.445-0.445-0.445-0.009 0-0.018 0-0.027 0.001l0.001-0h-0.267v1.014zM11.783 14.21c-0.002-0.015-0.002-0.031-0.002-0.049 0-0.279 0.226-0.505 0.505-0.505 0.074 0 0.145 0.016 0.208 0.045l-0.003-0.001c0.179 0.080 0.301 0.257 0.301 0.462 0 0.017-0.001 0.034-0.002 0.050l0-0.002c0.002 0.015 0.002 0.032 0.002 0.049 0 0.205-0.122 0.382-0.298 0.461l-0.003 0.001c-0.060 0.027-0.131 0.043-0.205 0.043-0.279 0-0.506-0.226-0.506-0.506 0-0.017 0.001-0.034 0.002-0.050l-0 0.002zM12.573 14.21c0-0.231-0.104-0.366-0.286-0.366s-0.286 0.135-0.286 0.366c0 0.233 0.103 0.367 0.286 0.367s0.286-0.135 0.286-0.367zM14.128 14.744h-0.218l-0.221-0.786h-0.017l-0.22 0.786h-0.216l-0.294-1.067h0.214l0.191 0.814h0.016l0.22-0.814h0.202l0.22 0.814h0.017l0.19-0.814h0.211l-0.293 1.067zM14.668 13.677h0.203v0.169h0.016c0.051-0.113 0.162-0.191 0.292-0.191 0.009 0 0.018 0 0.027 0.001l-0.001-0c0.008-0.001 0.017-0.001 0.026-0.001 0.155 0 0.286 0.101 0.331 0.242l0.001 0.002c0.015 0.050 0.020 0.102 0.012 0.154v0.69h-0.211v-0.637c0-0.172-0.075-0.257-0.23-0.257-0.003-0-0.007-0-0.011-0-0.135 0-0.245 0.11-0.245 0.245 0 0.009 0 0.018 0.001 0.027l-0-0.001v0.624h-0.211v-1.067zM15.91 13.261h0.211v1.483h-0.21v-1.483zM16.414 14.21c-0.002-0.015-0.002-0.031-0.002-0.049 0-0.279 0.226-0.505 0.505-0.505 0 0 0.001 0 0.001 0h-0c0.279 0 0.506 0.227 0.506 0.506 0 0.017-0.001 0.033-0.002 0.050l0-0.002c0.002 0.015 0.002 0.032 0.002 0.049 0 0.279-0.226 0.505-0.505 0.505-0 0-0 0-0.001 0h0c-0.279-0-0.506-0.227-0.506-0.506 0-0.017 0.001-0.034 0.002-0.050l-0 0.002zM17.204 14.21c0-0.231-0.104-0.366-0.286-0.366s-0.286 0.135-0.286 0.366c0 0.233 0.103 0.367 0.286 0.367s0.286-0.135 0.286-0.367zM17.643 14.442c0-0.192 0.143-0.303 0.397-0.318l0.289-0.017v-0.092c0-0.113-0.075-0.176-0.219-0.176-0.117 0-0.199 0.043-0.222 0.119h-0.204c0.021-0.183 0.194-0.301 0.436-0.301 0.268 0 0.419 0.133 0.419 0.358v0.729h-0.203v-0.15h-0.017c-0.065 0.101-0.176 0.168-0.304 0.168-0.006 0-0.012-0-0.018-0l0.001 0c-0.010 0.001-0.021 0.002-0.033 0.002-0.178 0-0.322-0.143-0.323-0.321v-0zM18.329 14.351v-0.089l-0.261 0.017c-0.147 0.010-0.214 0.060-0.214 0.154 0 0.096 0.083 0.152 0.198 0.152 0.007 0.001 0.016 0.001 0.025 0.001 0.098 0 0.182-0.055 0.224-0.137l0.001-0.001c0.015-0.030 0.024-0.063 0.027-0.097zM18.815 14.21c0-0.337 0.173-0.551 0.443-0.551 0.005-0 0.010-0 0.016-0 0.134 0 0.251 0.075 0.311 0.186l0.001 0.002h0.016v-0.586h0.211v1.483h-0.202v-0.168h-0.017c-0.065 0.112-0.185 0.186-0.322 0.186-0.005 0-0.009-0-0.014-0l0.001 0c-0.272 0-0.443-0.213-0.443-0.551zM19.033 14.21c0 0.226 0.107 0.362 0.285 0.362s0.287-0.138 0.287-0.361c0-0.222-0.111-0.362-0.287-0.362s-0.285 0.137-0.285 0.361zM20.683 14.21c-0.001-0.015-0.002-0.031-0.002-0.048 0-0.279 0.226-0.505 0.505-0.505 0 0 0 0 0.001 0h-0c0 0 0 0 0 0 0.279 0 0.505 0.226 0.505 0.505 0 0.017-0.001 0.034-0.002 0.050l0-0.002c0.002 0.015 0.002 0.032 0.002 0.050 0 0.131-0.050 0.25-0.132 0.339l0-0c-0.093 0.102-0.226 0.166-0.375 0.166-0.074 0-0.145-0.016-0.208-0.045l0.003 0.001c-0.13-0.058-0.229-0.167-0.274-0.3l-0.001-0.004c-0.016-0.047-0.026-0.102-0.026-0.159 0-0.017 0.001-0.034 0.003-0.051l-0 0.002zM21.473 14.21c0-0.231-0.104-0.366-0.286-0.366s-0.286 0.135-0.286 0.366c0 0.233 0.103 0.367 0.286 0.367s0.286-0.135 0.286-0.367zM21.973 13.677h0.203v0.169h0.016c0.051-0.113 0.163-0.191 0.293-0.191 0.009 0 0.018 0 0.027 0.001l-0.001-0c0.008-0.001 0.017-0.001 0.026-0.001 0.192 0 0.347 0.155 0.347 0.347 0 0.018-0.001 0.035-0.004 0.052l0-0.002v0.69h-0.211v-0.637c0-0.172-0.075-0.257-0.23-0.257-0.003-0-0.007-0-0.011-0-0.107 0-0.199 0.069-0.232 0.165l-0.001 0.002c-0.008 0.023-0.013 0.050-0.013 0.078 0 0.009 0 0.018 0.001 0.027l-0-0.001v0.624h-0.211v-1.067zM24.070 13.412v0.27h0.231v0.177h-0.231v0.548c0 0.112 0.046 0.161 0.151 0.161 0.027 0 0.054-0.002 0.080-0.005v0.175c-0.034 0.006-0.074 0.010-0.114 0.011h-0c-0.234 0-0.328-0.082-0.328-0.288v-0.602h-0.169v-0.177h0.169v-0.27h0.211zM24.588 13.261h0.209v0.588h0.017c0.053-0.114 0.166-0.192 0.298-0.192 0.010 0 0.019 0 0.028 0.001l-0.001-0c0.006-0 0.012-0.001 0.019-0.001 0.194 0 0.352 0.157 0.352 0.352 0 0.016-0.001 0.033-0.003 0.048l0-0.002v0.689h-0.211v-0.637c0-0.17-0.079-0.257-0.228-0.257-0.006-0.001-0.013-0.001-0.020-0.001-0.107 0-0.199 0.068-0.234 0.163l-0.001 0.002c-0.009 0.025-0.015 0.054-0.015 0.084 0 0.008 0 0.016 0.001 0.023l-0-0.001v0.623h-0.211l-0-1.483zM26.735 14.456c-0.054 0.181-0.22 0.311-0.415 0.311-0.017 0-0.033-0.001-0.049-0.003l0.002 0c-0.004 0-0.008 0-0.013 0-0.268 0-0.485-0.217-0.485-0.485 0-0.023 0.002-0.046 0.005-0.068l-0 0.003c-0.003-0.020-0.005-0.043-0.005-0.066 0-0.125 0.047-0.239 0.124-0.325l-0 0.001c0.091-0.102 0.222-0.166 0.369-0.166 0.001 0 0.003 0 0.004 0h-0c0.297 0 0.476 0.203 0.476 0.538v0.073h-0.754v0.012c-0.001 0.007-0.001 0.015-0.001 0.023 0 0.156 0.126 0.282 0.282 0.282 0.001 0 0.002 0 0.003 0h-0c0.009 0.001 0.020 0.002 0.030 0.002 0.096 0 0.179-0.052 0.223-0.13l0.001-0.001h0.203zM25.994 14.112h0.539c0-0.006 0.001-0.013 0.001-0.019 0-0.142-0.115-0.257-0.257-0.257-0.002 0-0.005 0-0.007 0h0c-0.001 0-0.002-0-0.003-0-0.114 0-0.211 0.069-0.253 0.168l-0.001 0.002c-0.014 0.034-0.021 0.070-0.020 0.106z"></path>
</symbol>
<symbol id="icon-btn_top" viewBox="0 0 32 32">
<path fill="#027b66" style="fill: var(--color5, #027b66)" opacity="0.76" d="M15.508 13.206l-9.355 9.364c-0.080 0.080-0.124 0.188-0.124 0.301l0.004 7.657c0 0 0 0 0 0.001 0 0.235 0.19 0.425 0.425 0.425 0.118 0 0.224-0.048 0.301-0.125v0l9.054-9.064 9.062 9.054c0.077 0.077 0.184 0.125 0.301 0.125 0.235 0 0.425-0.19 0.425-0.425 0-0 0-0 0-0.001v0l-0.004-7.657c0-0.113-0.044-0.221-0.124-0.301l-9.364-9.355c-0.077-0.077-0.184-0.125-0.301-0.125s-0.224 0.048-0.301 0.125l-0.001 0.001z"></path>
<path fill="#027b66" style="fill: var(--color5, #027b66)" opacity="0.76" d="M15.512 0.98l-9.355 9.364c-0.080 0.080-0.124 0.188-0.124 0.301l0.004 7.658c0 0 0 0.001 0 0.001 0 0.235 0.19 0.425 0.425 0.425 0.118 0 0.224-0.048 0.302-0.125l0-0 9.053-9.064 9.063 9.054c0.077 0.077 0.184 0.125 0.301 0.125 0.235 0 0.425-0.19 0.425-0.425 0-0 0-0 0-0.001v0l-0.004-7.657c0-0.113-0.045-0.221-0.125-0.301l-9.364-9.354c-0.077-0.077-0.184-0.125-0.301-0.125s-0.223 0.047-0.3 0.124v0l-0.001 0.001z"></path>
</symbol>
<symbol id="icon-calendar" viewBox="0 0 32 32">
<path d="M30.316 2.726h-5.474v-1.883c0-0.351-0.283-0.636-0.631-0.636-0.349 0.001-0.631 0.285-0.631 0.634 0 0.001 0 0.001 0 0.002v-0 1.883h-15.163v-1.882c0-0.351-0.283-0.636-0.631-0.636-0.349 0.001-0.632 0.284-0.632 0.634 0 0.001 0 0.001 0 0.002v-0 1.883h-5.468c-0.927 0-1.684 0.763-1.684 1.696v25.676c0 0.933 0.757 1.696 1.684 1.696h28.631c0.926 0 1.684-0.763 1.684-1.696v-25.676c0-0.932-0.758-1.696-1.684-1.696zM30.737 30.097c-0.002 0.232-0.189 0.42-0.421 0.425h-28.632c-0.232-0.004-0.419-0.192-0.421-0.424v-19.776h29.473v19.775zM30.737 9.050h-29.473v-4.629c0-0.23 0.192-0.424 0.421-0.424h5.468v2.357c0 0.351 0.283 0.636 0.632 0.636 0.349-0.001 0.631-0.285 0.631-0.634 0-0.001 0-0.002 0-0.003v0-2.357h15.163v2.357c0 0.351 0.283 0.636 0.631 0.636 0.349-0.001 0.631-0.285 0.631-0.634 0-0.001 0-0.002 0-0.003v0-2.357h5.474c0.228 0 0.421 0.194 0.421 0.425v4.628z"></path>
<path d="M14.535 14.521h-2.947c-0.349 0.001-0.632 0.284-0.632 0.634 0 0.001 0 0.001 0 0.002v-0c0 0.351 0.283 0.636 0.632 0.636h2.946c0.349-0.001 0.631-0.285 0.631-0.634 0-0.001 0-0.002 0-0.003v0c0-0.351-0.283-0.636-0.631-0.636zM20.43 14.521h-2.948c-0.349 0.001-0.631 0.285-0.631 0.634 0 0.001 0 0.001 0 0.002v-0c0 0.351 0.283 0.636 0.631 0.636h2.948c0.349-0.001 0.631-0.285 0.631-0.634 0-0.001 0-0.002 0-0.003v0c0-0.351-0.283-0.636-0.631-0.636zM26.324 14.521h-2.948c-0.349 0.001-0.631 0.285-0.631 0.634 0 0.001 0 0.001 0 0.002v-0c0 0.351 0.283 0.636 0.631 0.636h2.948c0.349-0.001 0.631-0.285 0.631-0.634 0-0.001 0-0.002 0-0.003v0c0-0.351-0.283-0.636-0.631-0.636zM14.535 18.311h-2.947c-0.349 0.001-0.632 0.284-0.632 0.634 0 0.001 0 0.001 0 0.002v-0c0 0.351 0.283 0.636 0.632 0.636h2.946c0.349-0.001 0.631-0.285 0.631-0.634 0-0.001 0-0.002 0-0.003v0c0-0.351-0.283-0.636-0.631-0.636zM20.43 18.311h-2.948c-0.349 0.001-0.631 0.285-0.631 0.634 0 0.001 0 0.001 0 0.002v-0c0 0.351 0.283 0.636 0.631 0.636h2.948c0.349-0.001 0.631-0.285 0.631-0.634 0-0.001 0-0.002 0-0.003v0c0-0.351-0.283-0.636-0.631-0.636zM26.324 18.311h-2.948c-0.349 0.001-0.631 0.285-0.631 0.634 0 0.001 0 0.001 0 0.002v-0c0 0.351 0.283 0.636 0.631 0.636h2.948c0.349-0.001 0.631-0.285 0.631-0.634 0-0.001 0-0.002 0-0.003v0c0-0.351-0.283-0.636-0.631-0.636zM8.22 18.311h-2.948c-0.349 0.001-0.631 0.285-0.631 0.634 0 0.001 0 0.001 0 0.002v-0c0 0.351 0.283 0.636 0.631 0.636h2.948c0.348 0 0.631-0.285 0.631-0.636s-0.283-0.636-0.631-0.636zM14.535 22.1h-2.947c-0.349 0.001-0.632 0.284-0.632 0.634 0 0.001 0 0.001 0 0.002v-0c0 0.351 0.283 0.636 0.632 0.636h2.946c0.349-0.001 0.631-0.285 0.631-0.634 0-0.001 0-0.002 0-0.003v0c0-0.351-0.283-0.636-0.631-0.636zM20.43 22.1h-2.948c-0.349 0.001-0.631 0.285-0.631 0.634 0 0.001 0 0.001 0 0.002v-0c0 0.351 0.283 0.636 0.631 0.636h2.948c0.349-0.001 0.631-0.285 0.631-0.634 0-0.001 0-0.002 0-0.003v0c0-0.351-0.283-0.636-0.631-0.636zM26.324 22.1h-2.948c-0.349 0.001-0.631 0.285-0.631 0.634 0 0.001 0 0.001 0 0.002v-0c0 0.351 0.283 0.636 0.631 0.636h2.948c0.349-0.001 0.631-0.285 0.631-0.634 0-0.001 0-0.002 0-0.003v0c0-0.351-0.283-0.636-0.631-0.636zM8.22 22.1h-2.948c-0.349 0.001-0.631 0.285-0.631 0.634 0 0.001 0 0.001 0 0.002v-0c0 0.351 0.283 0.636 0.631 0.636h2.948c0.348 0 0.631-0.285 0.631-0.636s-0.283-0.636-0.631-0.636zM8.22 25.89h-2.948c-0.349 0.001-0.631 0.285-0.631 0.634 0 0.001 0 0.001 0 0.002v-0c0 0.351 0.283 0.636 0.631 0.636h2.948c0.348 0 0.631-0.285 0.631-0.636s-0.283-0.636-0.631-0.636zM14.114 25.89h-2.946c-0.349 0.001-0.632 0.284-0.632 0.634 0 0.001 0 0.001 0 0.002v-0c0 0.351 0.283 0.636 0.632 0.636h2.946c0.349-0.001 0.631-0.285 0.631-0.634 0-0.001 0-0.002 0-0.003v0c0-0.351-0.283-0.636-0.631-0.636zM20.009 25.89h-2.948c-0.349 0.001-0.631 0.285-0.631 0.634 0 0.001 0 0.001 0 0.002v-0c0 0.351 0.283 0.636 0.631 0.636h2.948c0.349-0.001 0.631-0.285 0.631-0.634 0-0.001 0-0.002 0-0.003v0c0-0.351-0.283-0.636-0.631-0.636z"></path>
</symbol>
<symbol id="icon-facebook" viewBox="0 0 32 32">
<path opacity="0.46" d="M18.854 31.469c-0.175 0.006-0.287 0.019-0.398 0.019-2.386 0-4.767-0.006-7.153 0.006-0.335 0-0.426-0.082-0.426-0.381 0.008-4.975 0.008-9.957 0.008-14.931v-0.431h-3.845v-5.312h0.376c1.047 0 2.094-0.008 3.141 0.005 0.265 0 0.334-0.069 0.334-0.3-0.012-1.394-0.012-2.794 0.001-4.188 0.008-0.974 0.182-1.925 0.685-2.806 0.718-1.244 1.856-2.051 3.293-2.55 1.172-0.413 2.406-0.563 3.649-0.581 2.024-0.026 4.046-0.013 6.070-0.019 0.188 0 0.342-0.006 0.342 0.23-0.006 1.719-0.006 3.438-0.006 5.157 0 0.019-0.008 0.038-0.036 0.119h-0.384c-1.254 0-2.511-0.006-3.767 0-0.726 0-1.312 0.262-1.682 0.832-0.11 0.165-0.177 0.367-0.182 0.585l-0 0.001c-0.020 1.062 0 2.125-0.013 3.187 0 0.251 0.083 0.32 0.355 0.32 1.745-0.013 3.489-0.006 5.234-0.006h0.509c-0.243 1.787-0.481 3.537-0.726 5.306h-5.38v15.738z"></path>
</symbol>
<symbol id="icon-file" viewBox="0 0 32 32">
<path d="M11.713 20.989h-5.438c-0.346 0-0.627 0.279-0.627 0.623s0.281 0.624 0.627 0.624h5.438c0.346 0 0.628-0.279 0.628-0.624s-0.281-0.623-0.628-0.623z"></path>
<path d="M31.815 23.458l-4.94-4.911c1.139-1.352 1.831-3.114 1.831-5.037 0-0.002 0-0.004 0-0.006v0c0-2.47-1.142-4.672-2.927-6.121v-5.104c0-0.915-0.753-1.663-1.674-1.663h-22.433c-0.921 0-1.674 0.749-1.674 1.663v27.439c0 0.915 0.753 1.663 1.674 1.663h22.434c0.921 0 1.673-0.748 1.673-1.663v-10.093c0.074-0.060 0.143-0.126 0.215-0.189l4.932 4.903c0.114 0.113 0.271 0.183 0.444 0.183s0.33-0.070 0.444-0.183l-0 0c0.114-0.113 0.184-0.269 0.184-0.441s-0.070-0.329-0.184-0.441l-0-0zM19.242 16.831h-4.27c-0.496-0.835-0.816-1.829-0.883-2.891l-0.001-0.019h5.153c0.347 0 0.628-0.279 0.628-0.623s-0.281-0.624-0.628-0.624h-5.116c0.141-1.1 0.534-2.088 1.119-2.932l-0.014 0.022h4.012c0.346 0 0.628-0.279 0.628-0.623s-0.281-0.624-0.628-0.624h-2.895c1.171-1.033 2.718-1.663 4.412-1.663 0 0 0 0 0.001 0h-0c1.396 0 2.693 0.428 3.766 1.157l0.001 10.989c-1.053 0.725-2.356 1.158-3.76 1.158-0.002 0-0.004 0-0.006 0h0c-1.908 0-3.628-0.802-4.848-2.079h3.33c0.347 0 0.628-0.279 0.628-0.624s-0.281-0.623-0.628-0.623zM24.108 30.135h-22.435c-0.229-0.002-0.415-0.187-0.418-0.416v-27.438c0-0.226 0.192-0.416 0.418-0.416h22.433c0.226 0 0.418 0.191 0.418 0.416v4.269c-1.086-0.594-2.379-0.943-3.754-0.943-0.004 0-0.008 0-0.013 0h0.001c-0.004 0-0.009 0-0.014 0-2.471 0-4.678 1.128-6.135 2.897l-0.011 0.014h-8.324c-0.346 0-0.627 0.279-0.627 0.623s0.281 0.623 0.627 0.623h7.484c-0.466 0.842-0.787 1.828-0.9 2.876l-0.003 0.035h-6.582c-0.346 0-0.627 0.279-0.627 0.623s0.281 0.623 0.627 0.623h6.558c0.054 1.036 0.306 2.018 0.725 2.911h-7.282c-0.346 0-0.627 0.279-0.627 0.623s0.281 0.623 0.627 0.623h8.012c1.459 2.024 3.809 3.326 6.464 3.326 0.003 0 0.005 0 0.008 0h-0c0.003 0 0.008 0 0.012 0 1.375 0 2.669-0.349 3.797-0.964l-0.042 0.021v9.258c-0.004 0.229-0.189 0.414-0.418 0.416h-0zM25.781 17.888v-8.766c1.036 1.159 1.67 2.697 1.671 4.383v0c0 1.68-0.634 3.211-1.671 4.383z"></path>
</symbol>
<symbol id="icon-folder" viewBox="0 0 32 32">
<path  d="M30.662 14.4h-1.862v-3.343c-0.001-0.805-0.653-1.457-1.457-1.457h-1.743v-1.287l-0.264-0.265-8.049-8.048h-13.021v5.866h-2.809c-0.805 0.001-1.457 0.653-1.457 1.457v23.3h0.003c-0.002 0.3 0.091 0.594 0.279 0.84 0.25 0.328 0.641 0.537 1.081 0.537 0.002 0 0.003 0 0.005 0h23.871c0.617 0 1.159-0.415 1.306-0.967l5.454-14.954v-0.094c0-0.919-0.563-1.585-1.338-1.585zM27.343 10.666c0.215 0 0.391 0.175 0.391 0.391v3.343h-2.134v-3.734h1.743zM17.6 1.822l6.179 6.178h-6.179v-6.178zM5.334 1.066h11.2v8h8v5.334h-17.743c-0.076 0-0.152 0.006-0.225 0.018-0.519 0.086-0.953 0.465-1.082 0.948l-0.15 0.412v-14.713zM1.066 7.324c0-0.215 0.175-0.39 0.391-0.39h2.809v11.752l-3.2 8.727v-20.090zM25.53 30.711c-0.036 0.129-0.152 0.222-0.29 0.223h-23.871c-0.001 0-0.002 0-0.002 0-0.097 0-0.182-0.046-0.236-0.118l-0.001-0.001c-0.034-0.043-0.086-0.137-0.066-0.217l5.436-14.908c0.036-0.129 0.153-0.223 0.291-0.223 0 0 0 0 0 0h23.871c0.202 0 0.254 0.292 0.268 0.437l-5.399 14.807z"></path>
<path d="M8.534 9.066h5.333c0.294 0 0.533-0.239 0.533-0.533s-0.239-0.533-0.533-0.533h-5.333c-0.294 0-0.533 0.239-0.533 0.533s0.239 0.533 0.533 0.533v0zM8.534 5.334h5.333c0.295 0 0.534-0.239 0.534-0.534s-0.239-0.534-0.534-0.534h-5.333c-0.295 0-0.534 0.239-0.534 0.534s0.239 0.534 0.534 0.534v0zM8.534 12.8h12.8c0.294 0 0.533-0.239 0.533-0.533s-0.239-0.533-0.533-0.533h-12.8c-0.294 0-0.533 0.239-0.533 0.533s0.239 0.533 0.533 0.533v0z"></path>
</symbol>
<symbol id="icon-law-book" viewBox="0 0 32 32">
<path fill="#3b683d" style="fill: var(--color6, #3b683d)" d="M23.702 11.251h-0.095l-1.319-3.149v-0.016c0.067 0 0.133-0.001 0.199-0.004 0.25-0.011 0.448-0.217 0.448-0.468 0-0.259-0.21-0.469-0.469-0.469-0.007 0-0.015 0-0.022 0l0.001-0c-0.053 0.003-0.105 0.003-0.157 0.003v-0.18c0-0.259-0.21-0.469-0.469-0.469s-0.469 0.21-0.469 0.469v0.095c-1.901-0.379-1.904-1.437-3.295-1.437h-0.083c-0.152-0.429-0.485-0.76-0.905-0.906l-0.010-0.003v-0.299c0-0.259-0.21-0.469-0.469-0.469s-0.469 0.21-0.469 0.469v0.299c-0.43 0.149-0.763 0.481-0.912 0.899l-0.003 0.010c-0.040 0.007-0.771-0.069-1.427 0.489-0.528 0.453-1.175 0.782-1.888 0.936l-0.028 0.005v-0.087c0-0.259-0.21-0.469-0.469-0.469s-0.469 0.21-0.469 0.469v0.181c-0.248 0.014-0.444 0.218-0.444 0.468s0.196 0.454 0.442 0.468l0.001 0v0.015l-1.319 3.149c-0.037 0.007-0.315-0.043-0.536 0.188-0.225 0.235-0.183 0.515-0.125 0.887 0.084 0.497 0.4 0.945 0.908 1.191 0.233 0.111 0.413 0.384 0.859 0.384h1.365c0.325 0 0.555-0.175 0.598-0.21 0.078-0.070 0.167-0.13 0.265-0.176l0.007-0.003c0.662-0.317 0.91-0.901 0.941-1.625 0-0.008 0.001-0.017 0.001-0.026 0-0.337-0.273-0.61-0.61-0.61-0 0-0 0-0.001 0h-0.095l-1.319-3.149v-0.093c0.974-0.175 1.83-0.592 2.53-1.186l-0.008 0.006c0.359-0.305 0.787-0.26 0.815-0.265 0.144 0.435 0.487 0.78 0.92 0.927v4.871c-0.727 0.051-1.298 0.654-1.298 1.39 0 0.183 0.035 0.357 0.099 0.517l-0.003-0.009c-0.589 0.171-1.013 0.706-1.014 1.34v0c0 0.769 0.625 1.393 1.393 1.393h2.624c0.768 0 1.393-0.625 1.393-1.393 0-0.649-0.447-1.197-1.050-1.35 0.058-0.148 0.092-0.319 0.092-0.497 0-0.736-0.571-1.339-1.294-1.39l-0.004-0v-4.871c0.436-0.151 0.772-0.49 0.918-0.916l0.003-0.010c0.033 0.005 0.445-0.044 0.809 0.265 0.703 0.597 1.573 1.017 2.531 1.182l0.032 0.005v0.087l-1.32 3.149c-0.037 0.007-0.315-0.043-0.536 0.188-0.193 0.202-0.17 0.453-0.169 0.447 0 0.809 0.381 1.355 0.952 1.63 0.241 0.115 0.415 0.384 0.859 0.384h1.365c0.425 0 0.571-0.235 0.87-0.389 0.667-0.319 0.913-0.903 0.941-1.625 0-0.007 0-0.016 0-0.025 0-0.337-0.273-0.611-0.611-0.611v0zM10.705 12.963v0zM12.079 12.965c-0.003 0.002-0.003-0.002-0.003-0.002-2.007-0.005-1.023 0.082-1.827-0.296-0.192-0.091-0.332-0.265-0.377-0.474l-0.001-0.004h3.043c-0.090 0.447-0.439 0.436-0.836 0.776zM12.165 11.251h-1.543l0.771-1.842 0.772 1.841zM18.376 15.6c-0 0.251-0.204 0.455-0.455 0.455h-2.624c-0.244-0.010-0.439-0.21-0.439-0.456s0.194-0.446 0.438-0.456l0.001-0h2.624c0.251 0 0.455 0.205 0.455 0.456zM17.419 13.751c0 0 0 0 0 0 0 0.252-0.204 0.456-0.455 0.456h-0.75c-0.244-0.010-0.439-0.21-0.439-0.456s0.194-0.446 0.438-0.456l0.001-0h0.749c0.251 0 0.455 0.204 0.455 0.455zM16.589 6.631c-0.291-0-0.527-0.236-0.527-0.527s0.236-0.527 0.527-0.527c0 0 0 0 0.001 0h-0c0.291 0 0.527 0.236 0.527 0.527s-0.236 0.527-0.527 0.527c-0 0-0 0-0.001 0h0zM21.819 9.409l0.772 1.841h-1.544l0.772-1.841zM21.131 12.963l0.013 0.012-0.013-0.011zM22.505 12.965c-0.001 0.001-0.003-0.002-0.003-0.002-1.769-0.005-1.175 0.078-1.691-0.225-0.227-0.123-0.447-0.223-0.513-0.549h3.044c-0.091 0.451-0.457 0.451-0.836 0.776zM21.003 18.988h-8.829c-0.259 0-0.469 0.21-0.469 0.469s0.21 0.469 0.469 0.469h8.83c0.259 0 0.469-0.21 0.469-0.469s-0.21-0.469-0.469-0.469v0zM21.003 20.957h-8.829c-0.259 0-0.469 0.21-0.469 0.469s0.21 0.469 0.469 0.469v0h8.83c0.259 0 0.469-0.21 0.469-0.469s-0.21-0.469-0.469-0.469v0zM21.003 22.926h-8.829c-0.259 0-0.469 0.21-0.469 0.469s0.21 0.469 0.469 0.469h8.83c0.259 0 0.469-0.21 0.469-0.469s-0.21-0.469-0.469-0.469v0z"></path>
<path fill="#3b683d" style="fill: var(--color6, #3b683d)" d="M29.092 22.769c0.259 0 0.469-0.21 0.469-0.469v0-20.735c-0.001-0.865-0.702-1.566-1.567-1.566h-22.877c-1.486 0-2.676 1.23-2.676 2.652v26.691c0 1.429 1.228 2.657 2.676 2.657h14.909c0.259 0 0.469-0.21 0.469-0.469s-0.21-0.469-0.469-0.469l-14.909-0.013c-1.363 0-2.273-1.561-1.381-2.727 0.303-0.396 0.765-0.656 1.289-0.686l0.005-0c0.077-0.003 1.849-0.002 1.856-0.002v1.945c0.001 0.363 0.295 0.656 0.657 0.656 0.131 0 0.252-0.038 0.355-0.104l-0.003 0.002 1.067-0.678 1.051 0.668c0.101 0.065 0.225 0.104 0.357 0.104 0.368 0 0.667-0.299 0.667-0.667v0-1.925h15.221v3.429h-4.044c-0.259 0-0.469 0.21-0.469 0.469s0.21 0.469 0.469 0.469h5.678c0.922-0.001 1.669-0.748 1.67-1.669v-5.843c0-0.259-0.21-0.469-0.469-0.469s-0.469 0.21-0.469 0.469v0 1.479c0 0.327-0.216 0.604-0.513 0.697-0.177 0.055-21.952 0.033-22.375 0.033v-20.84c0-0.259-0.21-0.469-0.469-0.469s-0.469 0.21-0.469 0.469v20.858c-0.549 0.069-1.035 0.295-1.423 0.631l0.003-0.003c0.055-25.249-0.185-24.849 0.253-25.567 0.256-0.415 0.67-0.712 1.156-0.808l0.011-0.002v2.703c0 0.259 0.21 0.469 0.469 0.469s0.469-0.21 0.469-0.469v-2.732h22.259c0.347 0 0.628 0.282 0.628 0.629v20.735c0 0.259 0.21 0.469 0.469 0.469zM27.195 27.634c0.488-0.033 0.903 0.090 1.428-0.169v2.865c-0.001 0.404-0.328 0.731-0.732 0.732h-0.697v-3.429zM7.821 27.634h2.277v1.433c-0.618-0.36-0.77-0.577-1.139-0.577s-0.522 0.218-1.139 0.577v-1.433z"></path>
</symbol>
<symbol id="icon-left" viewBox="0 0 32 32">
<path fill="none" stroke="#3b683d" style="stroke: var(--color6, #3b683d)" stroke-linejoin="miter" stroke-linecap="butt" stroke-miterlimit="4" stroke-width="2.8571" d="M1.429 16c0 8.048 6.524 14.571 14.571 14.571s14.571-6.524 14.571-14.571c0-8.048-6.524-14.571-14.571-14.571s-14.571 6.524-14.571 14.571z"></path>
<path fill="#3b683d" style="fill: var(--color6, #3b683d)" d="M9.109 15.394c-0.155 0.155-0.251 0.369-0.251 0.606s0.096 0.451 0.251 0.606v0l5.454 5.455c0.155 0.155 0.37 0.251 0.606 0.251 0.474 0 0.857-0.384 0.857-0.857 0-0.237-0.096-0.451-0.251-0.606l-4.85-4.849 4.849-4.849c0.155-0.155 0.251-0.37 0.251-0.606 0-0.474-0.384-0.857-0.857-0.857-0.237 0-0.451 0.096-0.606 0.251l-5.454 5.455zM22.286 15.143h-12.571v1.714h12.571v-1.714z"></path>
</symbol>
<symbol id="icon-login" viewBox="0 0 32 32">
<path d="M29.5 1h-27.001c-0.828 0-1.5 0.671-1.5 1.5 0 0 0 0 0 0.001v-0 26.999c0 0 0 0 0 0.001 0 0.828 0.671 1.5 1.5 1.5 0 0 0 0 0.001 0h26.999c0.829 0 1.5-0.672 1.5-1.5v0-26.999c0-0.829-0.672-1.5-1.5-1.5v0zM2.5 2h27.001c0.276 0 0.5 0.224 0.5 0.5 0 0 0 0 0 0.001v-0 2.5h-28v-2.5c0-0.276 0.224-0.5 0.5-0.5 0 0 0 0 0.001 0h-0zM29.5 30h-27.001c-0.276 0-0.5-0.224-0.5-0.5 0-0 0-0 0-0.001v0-23.5h28v23.5c0 0.276-0.224 0.5-0.5 0.5-0 0-0 0-0.001 0h0z"></path>
<path d="M3.5 4h0.5c0.276 0 0.5-0.224 0.5-0.5s-0.224-0.5-0.5-0.5h-0.5c-0.276 0-0.5 0.224-0.5 0.5s0.224 0.5 0.5 0.5v0zM6 4h0.5c0.276 0 0.5-0.224 0.5-0.5s-0.224-0.5-0.5-0.5h-0.5c-0.276 0-0.5 0.224-0.5 0.5s0.224 0.5 0.5 0.5v0zM8.5 4h0.5c0.276 0 0.5-0.224 0.5-0.5s-0.224-0.5-0.5-0.5h-0.5c-0.276 0-0.5 0.224-0.5 0.5s0.224 0.5 0.5 0.5v0zM28.5 15h-14c-0 0-0 0-0.001 0-0.276 0-0.5 0.224-0.5 0.5 0 0 0 0 0 0.001v-0 4c0 0.276 0.224 0.5 0.5 0.5 0 0 0 0 0.001 0h14c0.276 0 0.5-0.224 0.5-0.5 0-0 0-0 0-0.001v0-4c0-0.276-0.224-0.5-0.5-0.5-0 0-0 0-0.001 0h0zM28 19h-13v-3h13v3zM28.5 21h-14c-0 0-0 0-0.001 0-0.276 0-0.5 0.224-0.5 0.5 0 0 0 0 0 0.001v-0 4c0 0.276 0.224 0.5 0.5 0.5 0 0 0 0 0.001 0h14c0.276 0 0.5-0.224 0.5-0.5 0-0 0-0 0-0.001v0-4c0-0.276-0.224-0.5-0.5-0.5-0 0-0 0-0.001 0h0zM28 25h-13v-3h13v3zM10.5 19h-5c-1.38 0.001-2.499 1.12-2.5 2.5v4c0 0.276 0.224 0.5 0.5 0.5 0 0 0 0 0.001 0h9c0.276 0 0.5-0.224 0.5-0.5 0-0 0-0 0-0.001v0-4c-0.002-1.38-1.12-2.498-2.5-2.5h-0zM12 25h-8v-3.5c0-0.828 0.671-1.5 1.5-1.5 0 0 0 0 0.001 0h4.999c0.829 0 1.5 0.672 1.5 1.5v0 3.5zM8 18.5c1.381 0 2.5-1.119 2.5-2.5s-1.119-2.5-2.5-2.5v0c-1.364 0.022-2.461 1.133-2.461 2.5s1.097 2.478 2.459 2.5l0.002 0zM8 14.5c0.009-0 0.020-0 0.030-0 0.829 0 1.5 0.672 1.5 1.5s-0.672 1.5-1.5 1.5c-0.011 0-0.021-0-0.032-0l0.002 0c-0.815-0.017-1.47-0.682-1.47-1.5s0.654-1.483 1.468-1.5l0.002-0zM14.5 12.5h2c0.276 0 0.5-0.224 0.5-0.5s-0.224-0.5-0.5-0.5h-1.5v-2.5c0-0.276-0.224-0.5-0.5-0.5s-0.5 0.224-0.5 0.5v3c0 0 0 0 0 0.001 0 0.276 0.224 0.5 0.5 0.5 0 0 0 0 0.001 0h-0zM18.5 12.5c0.829 0 1.5-0.672 1.5-1.5s-0.672-1.5-1.5-1.5v0c-0.829 0-1.5 0.672-1.5 1.5s0.672 1.5 1.5 1.5v0zM18.5 10.5c0.276 0 0.5 0.224 0.5 0.5s-0.224 0.5-0.5 0.5v0c-0.276 0-0.501-0.224-0.501-0.501s0.224-0.501 0.501-0.501v0zM22 12.5c0.18-0.002 0.352-0.036 0.511-0.096l-0.010 0.003v0.092c0 0.276-0.224 0.5-0.5 0.5-0 0-0 0-0.001 0h-0.5c-0.276 0-0.5 0.224-0.5 0.5s0.224 0.5 0.5 0.5h0.5c0.829 0 1.5-0.672 1.5-1.5v0-2.5c0-0 0-0 0-0 0-0.276-0.224-0.5-0.5-0.5-0.14 0-0.266 0.057-0.357 0.15l-0 0c-0.191-0.095-0.416-0.15-0.654-0.15-0.474 0-0.897 0.22-1.171 0.564l-0.002 0.003c-0.204 0.254-0.327 0.58-0.327 0.934 0 0.828 0.671 1.499 1.499 1.499 0.004 0 0.008-0 0.012-0h-0.001zM22 10.5c0.276 0 0.5 0.224 0.5 0.5s-0.224 0.5-0.5 0.5v0c-0.276 0-0.501-0.224-0.501-0.501s0.224-0.501 0.501-0.501v0zM24.5 12.5c0.276 0 0.5-0.224 0.5-0.5 0-0 0-0 0-0.001v0-2c0-0.276-0.224-0.5-0.5-0.5s-0.5 0.224-0.5 0.5v2c0 0 0 0 0 0.001 0 0.276 0.224 0.5 0.5 0.5 0 0 0 0 0.001 0h-0zM26 12.5c0 0 0 0 0.001 0 0.276 0 0.5-0.224 0.5-0.5 0-0 0-0 0-0.001v0-1.25c0-0.138 0.112-0.25 0.25-0.25s0.25 0.112 0.25 0.25v1.25c0 0.276 0.224 0.5 0.5 0.5s0.5-0.224 0.5-0.5v-1.25c0-0.001 0-0.001 0-0.002 0-0.689-0.559-1.248-1.248-1.248-0.171 0-0.335 0.035-0.483 0.097l0.008-0.003c-0.077-0.057-0.172-0.092-0.276-0.094h-0.001c-0 0-0 0-0.001 0-0.276 0-0.5 0.224-0.5 0.5v0 2c0 0 0 0 0 0.001 0 0.276 0.224 0.5 0.5 0.5 0 0 0 0 0.001 0h-0zM24.5 9c0.005 0 0.011 0 0.018 0 0.276 0 0.5-0.224 0.5-0.5s-0.224-0.5-0.5-0.5c-0.006 0-0.012 0-0.018 0l0.001-0c-0.269 0.010-0.483 0.23-0.483 0.5s0.214 0.49 0.482 0.5l0.001 0z"></path>
</symbol>
<symbol id="icon-mail" viewBox="0 0 32 32">
<path d="M30.359 5.334h-28.718c-0.905 0.002-1.638 0.735-1.641 1.64v18.052c0 0.902 0.738 1.641 1.641 1.641h28.718c0.903 0 1.641-0.738 1.641-1.641v-18.052c0-0.902-0.738-1.641-1.641-1.641zM29.743 6.564l-12.799 9.6c-0.23 0.175-0.583 0.284-0.944 0.283-0.361 0.001-0.714-0.108-0.944-0.283l-12.799-9.6h27.487zM22.906 16.798l6.974 8.615c0.007 0.009 0.015 0.015 0.023 0.023h-27.807c0.007-0.009 0.016-0.015 0.023-0.023l6.974-8.615c0.085-0.105 0.137-0.24 0.137-0.387 0-0.34-0.276-0.615-0.615-0.615-0.192 0-0.364 0.088-0.477 0.226l-0.001 0.001-6.906 8.532v-17.222l13.087 9.815c0.492 0.367 1.090 0.528 1.682 0.529 0.591-0.001 1.19-0.162 1.682-0.529l13.087-9.815v17.221l-6.906-8.531c-0.114-0.14-0.286-0.228-0.479-0.228-0.34 0-0.615 0.276-0.615 0.615 0 0.148 0.052 0.283 0.138 0.389l-0.001-0.001z"></path>
</symbol>
<symbol id="icon-message" viewBox="0 0 32 32">
<path opacity="0.46" d="M32 24.642v-14.814s-14.56 10.452-15.976 10.995c-1.392-0.517-16.024-10.996-16.024-10.996v14.815c0 2.058 0.424 2.469 2.4 2.469h27.2c2.023 0 2.4-0.362 2.4-2.469zM31.977 6.923c0-1.499-0.425-2.034-2.377-2.034h-27.2c-2.008 0-2.4 0.642-2.4 2.14l0.024 0.231s14.455 10.238 16 10.798c1.632-0.651 15.976-11.029 15.976-11.029l-0.023-0.106z"></path>
</symbol>
<symbol id="icon-right" viewBox="0 0 32 32">
<path fill="none" stroke="#3b683d" style="stroke: var(--color6, #3b683d)" stroke-linejoin="miter" stroke-linecap="butt" stroke-miterlimit="4" stroke-width="2.8070" d="M30.305 15.741c-0.138-7.905-6.658-14.202-14.563-14.064s-14.202 6.658-14.064 14.563c0.138 7.905 6.658 14.202 14.563 14.064s14.202-6.658 14.064-14.563z"></path>
<path fill="#3b683d" style="fill: var(--color6, #3b683d)" d="M22.772 16.633c0.146-0.151 0.236-0.358 0.236-0.585 0-0.238-0.099-0.452-0.257-0.606l-0-0-5.452-5.265c-0.151-0.146-0.358-0.236-0.585-0.236-0.465 0-0.842 0.377-0.842 0.842 0 0.238 0.098 0.452 0.257 0.606l0 0 4.846 4.68-4.68 4.846c-0.146 0.151-0.236 0.358-0.236 0.585 0 0.465 0.377 0.842 0.842 0.842 0.238 0 0.452-0.099 0.606-0.257l0-0 5.265-5.452zM9.831 17.105l12.349-0.216-0.029-1.684-12.349 0.216 0.029 1.684z"></path>
</symbol>
<symbol id="icon-telegram" viewBox="0 0 32 32">
<path opacity="0.46" d="M29.402 0.364l-28.348 13.056c-1.142 0.608-1.527 1.825-0.276 2.487l7.273 2.76 17.586-12.979c0.96-0.814 1.943-0.598 1.097 0.3l-15.104 16.33-0.474 6.912c0.439 1.068 1.244 1.071 1.757 0.541l4.178-4.722 7.156 6.4c1.664 1.175 2.568 0.417 2.925-1.737l4.694-26.543c0.488-2.652-0.343-3.82-2.461-2.803z"></path>
</symbol>
<symbol id="icon-user" viewBox="0 0 32 32">
<path d="M27.2 0h-22.4c-2.646 0-4.8 2.154-4.8 4.8v22.4c0 2.38 1.743 4.355 4.018 4.73 0.071 0.042 0.156 0.067 0.247 0.070h23.468c0.092-0.002 0.177-0.028 0.251-0.071l-0.002 0.001c2.275-0.375 4.018-2.351 4.018-4.73v-22.4c0-2.646-2.154-4.8-4.8-4.8zM27.2 30.934h-22.4v-5.867c0-4.001 2.942-7.366 6.878-7.918 0.067 0.053 0.138 0.101 0.207 0.151 0.23 0.17 0.468 0.329 0.718 0.47l0.048 0.030c0.11 0.061 0.223 0.113 0.336 0.168 0.074 0.036 0.148 0.074 0.223 0.108 0.11 0.049 0.222 0.091 0.335 0.134 0.084 0.032 0.167 0.064 0.252 0.092 0.156 0.056 0.365 0.116 0.577 0.167l0.047 0.009c0.102 0.025 0.205 0.047 0.309 0.067 0.122 0.023 0.246 0.041 0.37 0.056 0.085 0.012 0.168 0.025 0.254 0.033 0.214 0.020 0.431 0.032 0.647 0.032s0.433-0.012 0.647-0.032c0.086-0.009 0.169-0.022 0.254-0.033 0.124-0.017 0.247-0.034 0.37-0.057 0.105-0.019 0.207-0.043 0.309-0.067 0.259-0.060 0.468-0.121 0.672-0.191l-0.048 0.014c0.086-0.028 0.169-0.060 0.253-0.092 0.113-0.043 0.225-0.086 0.335-0.134 0.076-0.033 0.149-0.071 0.224-0.108 0.112-0.055 0.226-0.107 0.335-0.168 0.020-0.011 0.038-0.025 0.058-0.036 0.246-0.14 0.481-0.297 0.708-0.464 0.069-0.051 0.14-0.098 0.207-0.151 3.908 0.564 6.878 3.89 6.878 7.91 0 0.003 0 0.006 0 0.008v-0 5.867zM10.134 11.734c0-3.235 2.632-5.867 5.866-5.867s5.866 2.632 5.866 5.867c-0 1.789-0.803 3.389-2.068 4.463l-0.008 0.007c-0.090 0.078-0.185 0.148-0.281 0.22-0.049 0.037-0.097 0.075-0.147 0.11-0.074 0.052-0.169 0.115-0.266 0.174l-0.026 0.015c-0.053 0.033-0.106 0.067-0.161 0.098-0.22 0.128-0.48 0.254-0.75 0.363l-0.042 0.015c-0.127 0.053-0.294 0.111-0.465 0.161l-0.039 0.010c-0.037 0.012-0.113 0.032-0.19 0.050l-0.037 0.007c-0.097 0.025-0.195 0.047-0.294 0.067-0.098 0.018-0.198 0.032-0.297 0.045-0.080 0.011-0.16 0.025-0.24 0.033-0.183 0.018-0.369 0.029-0.556 0.029s-0.374-0.010-0.556-0.028c-0.080-0.008-0.16-0.022-0.24-0.033-0.099-0.014-0.199-0.026-0.297-0.046-0.136-0.026-0.234-0.049-0.332-0.075l0.039 0.009c-0.076-0.018-0.151-0.037-0.226-0.058-0.216-0.063-0.383-0.121-0.547-0.186l0.044 0.015c-0.202-0.078-0.363-0.151-0.519-0.23l0.032 0.015c-0.135-0.066-0.236-0.12-0.334-0.177l0.028 0.015c-0.054-0.031-0.107-0.065-0.161-0.098-0.098-0.061-0.198-0.123-0.292-0.19-0.050-0.036-0.098-0.074-0.148-0.11-0.108-0.080-0.2-0.152-0.288-0.227l0.008 0.007c-1.273-1.080-2.076-2.681-2.076-4.47v-0zM30.934 27.2c0 1.688-1.126 3.116-2.667 3.576v-5.71c0-4.265-2.95-7.884-7.012-8.822 1.043-1.202 1.679-2.782 1.679-4.51 0-0 0-0 0-0v0c0-3.823-3.111-6.934-6.934-6.934s-6.934 3.11-6.934 6.934c0 1.722 0.635 3.297 1.679 4.511-4.047 0.958-7.012 4.541-7.012 8.816 0 0.002 0 0.004 0 0.006v-0 5.71c-1.54-0.46-2.667-1.888-2.667-3.576v-22.4c0.002-2.061 1.672-3.731 3.733-3.734h22.4c2.061 0.002 3.731 1.672 3.734 3.733v22.4z"></path>
</symbol>
<symbol id="icon-youtube" viewBox="0 0 32 32">
<path opacity="0.46" d="M30.128 5.81c-0.622-0.599-1.436-1.005-2.34-1.117l-0.020-0.002c-1.946-0.228-3.91-0.342-5.88-0.399-1.957-0.057-3.922-0.057-5.883-0.056s-3.927 0-5.884 0.056c-1.97 0.056-3.934 0.171-5.88 0.399-0.894 0.104-1.713 0.506-2.359 1.12-0.647 0.623-1.113 1.431-1.312 2.339l-0.006 0.031c-0.28 1.261-0.421 2.577-0.491 3.902-0.072 1.331-0.073 2.644-0.073 3.919 0 1.272 0 2.584 0.070 3.915 0.070 1.324 0.209 2.641 0.488 3.902 0.207 0.941 0.679 1.761 1.32 2.371 0.622 0.599 1.434 1.005 2.337 1.117l0.020 0.002c1.947 0.228 3.911 0.342 5.88 0.399 1.958 0.057 3.923 0.057 5.884 0.056 1.962 0.001 3.928 0.001 5.885-0.056 1.97-0.056 3.932-0.172 5.88-0.399 0.923-0.114 1.735-0.52 2.358-1.12l-0.001 0.001c0.649-0.624 1.116-1.432 1.318-2.34l0.006-0.031c0.277-1.261 0.416-2.579 0.486-3.902 0.069-1.305 0.070-2.63 0.070-3.915h0.001v-0.065h-0.001c0-2.554 0-5.261-0.549-7.756-0.207-0.941-0.68-1.76-1.322-2.371z"></path>
<path fill="#004d40" style="fill: var(--color7, #004d40)" d="M22.072 15.372c-1.823-0.996-3.633-1.984-5.443-2.97l-5.009-2.733v11.996l0.496-0.268c1.664-0.901 3.32-1.798 4.977-2.696l5.557-3.013-0.578-0.315z"></path>
</symbol>
</defs>
</svg>
